<svg width="18" height="12" viewBox="0 0 18 12" fill="none" xmlns="http://www.w3.org/2000/svg">
<path d="M16.5925 -8.74228e-08L5.59253 -1.04907e-06C5.04253 -1.09716e-06 4.59253 0.449999 4.59253 0.999999C4.59253 1.55 5.04253 2 5.59253 2L16.5925 2C17.1425 2 17.5925 1.55 17.5925 1C17.5925 0.45 17.1425 -3.93402e-08 16.5925 -8.74228e-08ZM16.5925 5L8.59253 5C8.04253 5 7.59253 5.45 7.59253 6C7.59253 6.55 8.04253 7 8.59253 7L16.5925 7C17.1425 7 17.5925 6.55 17.5925 6C17.5925 5.45 17.1425 5 16.5925 5ZM17.5925 11C17.5925 10.45 17.1425 10 16.5925 10L5.59253 10C5.04253 10 4.59253 10.45 4.59253 11C4.59253 11.55 5.04253 12 5.59253 12L16.5925 12C17.1425 12 17.5925 11.55 17.5925 11ZM0.292531 3.12L3.17253 6L0.29253 8.88C-0.0974691 9.27 -0.0974691 9.9 0.29253 10.29C0.68253 10.68 1.31253 10.68 1.70253 10.29L5.29253 6.7C5.68253 6.31 5.68253 5.68 5.29253 5.29L1.70253 1.7C1.31253 1.31 0.68253 1.31 0.292531 1.7C-0.0874682 2.09 -0.0974685 2.73 0.292531 3.12Z" fill="#888888"/>
</svg>
